<svg width="60.000000" height="60.000000" viewBox="0 0 60 60" fill="none" xmlns="http://www.w3.org/2000/svg" xmlns:xlink="http://www.w3.org/1999/xlink">
	<desc>
			Created with Pixso.
	</desc>
	<defs/>
	<path id="Vector" d="M41.6201 22.2651C41.0693 22.6384 40.4243 22.8373 39.7651 22.8373C39.0156 22.8364 38.2881 22.58 37.6948 22.108L37.1436 22.7836C37.8877 23.3968 38.8125 23.73 39.7651 23.7281C40.5938 23.7283 41.4048 23.4777 42.0967 23.0076C42.7886 22.5374 43.3311 21.8682 43.6577 21.083C43.9844 20.2978 44.0801 19.4311 43.9331 18.5904C43.7861 17.7496 43.4028 16.9719 42.8311 16.3535C42.2593 15.735 41.5244 15.3032 40.7163 15.1114C39.9087 14.9196 39.0645 14.9764 38.2881 15.2747C37.5112 15.5729 36.8364 16.0995 36.3477 16.7893C35.8589 17.4791 35.5767 18.3015 35.5371 19.1548L36.3955 19.1548C36.4341 18.4765 36.6646 17.8246 37.0581 17.2797C37.4521 16.7348 37.9917 16.3206 38.6113 16.0884C39.231 15.8561 39.9028 15.8159 40.5444 15.9727C41.1855 16.1295 41.7686 16.4765 42.2207 16.9708C42.6733 17.4651 42.9751 18.0851 43.0894 18.7543C43.2041 19.4235 43.1255 20.1125 42.8647 20.7364C42.6035 21.3603 42.1709 21.8917 41.6201 22.2651ZM22.7368 19.7347L20.6489 16.6022C20.5146 16.4022 20.3354 16.2389 20.126 16.1264C19.917 16.0139 19.6846 15.9556 19.4482 15.9565L15 15.9565L15 15.0717L19.4541 15.0717C19.8291 15.0722 20.1978 15.1666 20.5293 15.3467C20.8608 15.5269 21.1445 15.7875 21.3564 16.106L23.7695 19.7407L38.8721 19.7407L29.1455 31.6671L29.1455 43.5098C31.7324 43.5337 33.7568 43.725 33.7568 43.9641C33.7563 43.971 33.7544 43.9777 33.7515 43.9839C33.7485 43.9901 33.7441 43.9955 33.7393 44L23.6128 44C23.6074 43.9955 23.6035 43.9901 23.6006 43.9839C23.5977 43.9777 23.5957 43.971 23.5952 43.9641C23.5952 43.725 25.6196 43.5337 28.2061 43.5098L28.2061 31.6611L18.48 19.7347L22.7368 19.7347ZM24.709 22.6998L23.3633 20.6793L20.4458 20.6793L28.6816 30.7823L29.2212 30.1187L23.1719 22.6998L24.709 22.6998ZM35.2646 22.6998L36.9116 20.6793L24.3955 20.6793L25.7412 22.6998L35.2646 22.6998Z" fill="#163152" fill-opacity="1.000000" fill-rule="evenodd"/>
	<circle id="Ellipse 9" cx="30.000000" cy="30.000000" r="29.500000" stroke="#009A93" stroke-opacity="1.000000" stroke-width="1.000000"/>
</svg>
