<svg width="60.000000" height="60.000000" viewBox="0 0 60 60" fill="none" xmlns="http://www.w3.org/2000/svg" xmlns:xlink="http://www.w3.org/1999/xlink">
	<desc>
			Created with Pixso.
	</desc>
	<defs/>
	<path id="double_bed" d="M45.0176 30.8924C45.0737 30.781 45.103 30.6584 45.1035 30.534L45.1035 29.3417C45.1025 28.9482 44.9438 28.571 44.6616 28.2927C44.3794 28.0145 43.9971 27.8579 43.5981 27.8573L42.6055 27.8573L42.6055 21.2004C42.604 20.6172 42.3682 20.0583 41.9502 19.646C41.5317 19.2336 40.9648 19.0014 40.3735 19L18.6914 19C18.0996 19.0008 17.5322 19.2328 17.1133 19.6452C16.6943 20.0576 16.4585 20.6168 16.457 21.2004L16.457 27.8573L15.4014 27.8573C15.002 27.8577 14.6196 28.0142 14.3374 28.2925C14.0552 28.5708 13.8965 28.9482 13.896 29.3417L13.896 30.534C13.896 30.6586 13.9253 30.7815 13.9814 30.8931C13.4131 31.0455 12.9111 31.3777 12.5532 31.8389C12.1953 32.3 12.001 32.8644 12 33.4451L12 36.9976C12.0005 37.3111 12.127 37.6116 12.3516 37.8333C12.5767 38.0549 12.8813 38.1796 13.1992 38.18L15.6865 38.18L15.6865 39.2878C15.687 39.4767 15.7637 39.6577 15.8989 39.7913C16.0347 39.9247 16.2183 39.9998 16.4097 40L17.0581 40C17.2495 39.9998 17.4331 39.9247 17.5688 39.7913C17.7041 39.6577 17.7803 39.4767 17.7808 39.2878L17.7808 38.18L42.0493 38.18L42.0493 39.2878C42.0498 39.4767 42.126 39.6577 42.2617 39.7913C42.397 39.9247 42.5811 39.9998 42.7725 40L43.4204 40C43.6123 39.9998 43.7959 39.9247 43.9312 39.7913C44.0669 39.6577 44.1431 39.4767 44.1436 39.2878L44.1436 38.18L45.8008 38.18C46.1187 38.1796 46.4233 38.0549 46.6484 37.8333C46.873 37.6116 46.9995 37.3111 47 36.9976L47 33.4451C46.999 32.8641 46.8047 32.2996 46.4463 31.8383C46.0884 31.3771 45.5864 31.0447 45.0176 30.8924ZM17.0156 21.2004C17.0156 20.7628 17.1919 20.3431 17.5059 20.0334C17.8193 19.7236 18.2446 19.549 18.6885 19.5479L40.374 19.5479C40.8184 19.5484 41.2446 19.7227 41.5586 20.0325C41.8726 20.3423 42.0493 20.7623 42.0503 21.2004L42.0503 27.788L38.7593 27.788L38.7593 27.0652C38.7593 26.8543 38.6738 26.6522 38.5229 26.5029C38.3716 26.3538 38.167 26.2698 37.9531 26.2693L32.1592 26.2693C31.9448 26.2695 31.7397 26.3535 31.5884 26.5027C31.437 26.6519 31.3521 26.8542 31.3521 27.0652L31.3521 27.7919L27.71 27.7919L27.71 27.0652C27.7095 26.8543 27.6245 26.6522 27.4736 26.5029C27.3223 26.3538 27.1172 26.2698 26.9033 26.2693L21.1094 26.2693C20.8955 26.2695 20.6904 26.3535 20.5391 26.5027C20.3877 26.6519 20.3027 26.8542 20.3022 27.0652L20.3022 27.7919L17.0156 27.7919L17.0156 21.2004ZM14.4512 29.3478C14.4517 29.0995 14.5518 28.8614 14.73 28.6857C14.9077 28.5101 15.1494 28.4114 15.4014 28.4112L43.5981 28.4112C43.8496 28.4116 44.0913 28.5104 44.269 28.686C44.4473 28.8615 44.5474 29.0995 44.5479 29.3478L44.5479 30.5401C44.5479 30.6107 44.5195 30.6785 44.4688 30.7284C44.418 30.7784 44.3496 30.8064 44.2778 30.8064L14.7251 30.8064C14.6538 30.8064 14.585 30.7784 14.5342 30.7284C14.4839 30.6785 14.4551 30.6107 14.4551 30.5401L14.4512 29.3478ZM46.4468 37.0037C46.4468 37.1719 46.3789 37.3332 46.2578 37.4521C46.1372 37.5712 45.9736 37.6381 45.8032 37.6382L13.1992 37.6382C13.0283 37.6381 12.8647 37.5712 12.7441 37.4521C12.6235 37.3332 12.5557 37.1719 12.5557 37.0037L12.5557 33.4451C12.5562 32.8893 12.7803 32.3565 13.1787 31.9636C13.5771 31.5706 14.1177 31.3495 14.6812 31.3489L44.3179 31.3489C44.8818 31.3493 45.4224 31.5703 45.8208 31.9633C46.2197 32.3563 46.4438 32.8892 46.4443 33.4451L46.4443 36.9976L46.4468 37.0037Z" fill="#163152" fill-opacity="1.000000" fill-rule="evenodd"/>
	<path id="double_bed" d="M45.1035 30.534L45.1035 29.3417C45.1025 28.9482 44.9438 28.571 44.6616 28.2927C44.3794 28.0145 43.9971 27.8579 43.5981 27.8573L42.6055 27.8573L42.6055 21.2004C42.604 20.6172 42.3682 20.0583 41.9502 19.646C41.5317 19.2336 40.9648 19.0014 40.3735 19L18.6914 19C18.0996 19.0008 17.5322 19.2328 17.1133 19.6452C16.6943 20.0576 16.4585 20.6168 16.457 21.2004L16.457 27.8573L15.4014 27.8573C15.002 27.8577 14.6196 28.0142 14.3374 28.2925C14.0552 28.5708 13.8965 28.9482 13.896 29.3417L13.896 30.534C13.896 30.6586 13.9253 30.7815 13.9814 30.8931C13.4131 31.0455 12.9111 31.3777 12.5532 31.8389C12.1953 32.3 12.001 32.8644 12 33.4451L12 36.9976C12.0005 37.3111 12.127 37.6116 12.3516 37.8333C12.5767 38.0549 12.8813 38.1796 13.1992 38.18L15.6865 38.18L15.6865 39.2878C15.687 39.4767 15.7637 39.6577 15.8989 39.7913C16.0347 39.9247 16.2183 39.9998 16.4097 40L17.0581 40C17.2495 39.9998 17.4331 39.9247 17.5688 39.7913C17.7041 39.6577 17.7803 39.4767 17.7808 39.2878L17.7808 38.18L42.0493 38.18L42.0493 39.2878C42.0498 39.4767 42.126 39.6577 42.2617 39.7913C42.397 39.9247 42.5811 39.9998 42.7725 40L43.4204 40C43.6123 39.9998 43.7959 39.9247 43.9312 39.7913C44.0669 39.6577 44.1431 39.4767 44.1436 39.2878L44.1436 38.18L45.8008 38.18C46.1187 38.1796 46.4233 38.0549 46.6484 37.8333C46.873 37.6116 46.9995 37.3111 47 36.9976L47 33.4451C46.999 32.8641 46.8047 32.2996 46.4463 31.8383C46.0884 31.3771 45.5864 31.0447 45.0176 30.8924C45.0737 30.781 45.103 30.6584 45.1035 30.534ZM17.5059 20.0334C17.8193 19.7236 18.2446 19.549 18.6885 19.5479L40.374 19.5479C40.8184 19.5484 41.2446 19.7227 41.5586 20.0325C41.8726 20.3423 42.0493 20.7623 42.0503 21.2004L42.0503 27.788L38.7593 27.788L38.7593 27.0652C38.7593 26.8543 38.6738 26.6522 38.5229 26.5029C38.3716 26.3538 38.167 26.2698 37.9531 26.2693L32.1592 26.2693C31.9448 26.2695 31.7397 26.3535 31.5884 26.5027C31.437 26.6519 31.3521 26.8542 31.3521 27.0652L31.3521 27.7919L27.71 27.7919L27.71 27.0652C27.7095 26.8543 27.6245 26.6522 27.4736 26.5029C27.3223 26.3538 27.1172 26.2698 26.9033 26.2693L21.1094 26.2693C20.8955 26.2695 20.6904 26.3535 20.5391 26.5027C20.3877 26.6519 20.3027 26.8542 20.3022 27.0652L20.3022 27.7919L17.0156 27.7919L17.0156 21.2004C17.0156 20.7628 17.1919 20.3431 17.5059 20.0334ZM38.2036 27.7919L31.9072 27.7919L31.9072 27.0652C31.9072 26.9995 31.9341 26.9363 31.981 26.8898C32.0283 26.8433 32.0923 26.8172 32.1592 26.8172L37.9531 26.8172C38.0195 26.8174 38.0835 26.8436 38.1304 26.8901C38.1772 26.9366 38.2036 26.9996 38.2036 27.0652L38.2036 27.7919ZM27.1543 27.7919L20.8579 27.7919L20.8579 27.0652C20.8579 26.9995 20.8848 26.9363 20.9316 26.8898C20.979 26.8433 21.043 26.8172 21.1094 26.8172L26.9033 26.8172C26.9702 26.8174 27.0337 26.8436 27.0811 26.8901C27.1279 26.9366 27.1543 26.9996 27.1543 27.0652L27.1543 27.7919ZM14.73 28.6857C14.9077 28.5101 15.1494 28.4114 15.4014 28.4112L43.5981 28.4112C43.8496 28.4116 44.0913 28.5104 44.269 28.686C44.4473 28.8615 44.5474 29.0995 44.5479 29.3478L44.5479 30.5401C44.5479 30.6107 44.5195 30.6785 44.4688 30.7284C44.418 30.7784 44.3496 30.8064 44.2778 30.8064L14.7251 30.8064C14.6538 30.8064 14.585 30.7784 14.5342 30.7284C14.4839 30.6785 14.4551 30.6107 14.4551 30.5401L14.4512 29.3478C14.4517 29.0995 14.5518 28.8614 14.73 28.6857ZM17.2163 39.3563C17.208 39.3763 17.1958 39.3946 17.1802 39.4099C17.1646 39.4252 17.146 39.4374 17.126 39.4457C17.1055 39.454 17.0835 39.4583 17.0615 39.4583L16.4136 39.4583C16.3906 39.4586 16.3682 39.4543 16.3472 39.4458C16.3262 39.4373 16.3071 39.4246 16.2915 39.4086C16.2754 39.3926 16.2632 39.3735 16.2549 39.3527C16.2466 39.3318 16.2432 39.3094 16.2437 39.287L16.2437 38.2287L17.2251 38.2287L17.229 39.2932C17.229 39.3148 17.2246 39.3363 17.2163 39.3563ZM43.5791 39.3563C43.5708 39.3763 43.5581 39.3946 43.543 39.4099C43.5273 39.4252 43.5088 39.4374 43.4883 39.4457C43.4683 39.454 43.4463 39.4583 43.4243 39.4583L42.7764 39.4583C42.7319 39.4581 42.6895 39.4406 42.6582 39.4096C42.627 39.3787 42.6094 39.3368 42.6094 39.2932L42.6094 38.2287L43.5918 38.2287L43.5918 39.287L43.5918 39.2932C43.5918 39.3148 43.5874 39.3363 43.5791 39.3563ZM46.2578 37.4521C46.1372 37.5712 45.9736 37.6381 45.8032 37.6382L13.1992 37.6382C13.0283 37.6381 12.8647 37.5712 12.7441 37.4521C12.6235 37.3332 12.5557 37.1719 12.5557 37.0037L12.5557 33.4451C12.5562 32.8893 12.7803 32.3565 13.1787 31.9636C13.5771 31.5706 14.1177 31.3495 14.6812 31.3489L44.3179 31.3489C44.8818 31.3493 45.4224 31.5703 45.8208 31.9633C46.2197 32.3563 46.4438 32.8892 46.4443 33.4451L46.4443 36.9976L46.4468 37.0037C46.4468 37.1719 46.3789 37.3332 46.2578 37.4521Z" stroke="#163152" stroke-opacity="1.000000" stroke-width="1.000000"/>
	<circle id="Ellipse 10" cx="30.000000" cy="30.000000" r="29.500000" stroke="#009A93" stroke-opacity="1.000000" stroke-width="1.000000"/>
</svg>
