<svg width="60.000000" height="60.000000" viewBox="0 0 60 60" fill="none" xmlns="http://www.w3.org/2000/svg" xmlns:xlink="http://www.w3.org/1999/xlink">
	<desc>
			Created with Pixso.
	</desc>
	<defs/>
	<path id="Vector" d="M46.2192 39.5902L49.4839 39.5902C49.5605 39.5974 49.6353 39.6217 49.7031 39.6616C49.771 39.7015 49.8306 39.7562 49.8784 39.8222C49.9263 39.8882 49.9614 39.9643 49.981 40.0457C50.001 40.127 50.0054 40.2119 49.9937 40.2951C50.0015 40.3806 49.9937 40.467 49.9707 40.5491C49.9473 40.6312 49.9092 40.7075 49.8584 40.7732C49.8076 40.8389 49.7456 40.8929 49.6753 40.9318C49.605 40.9708 49.5283 40.994 49.4497 41L10.5469 41C10.3906 40.9821 10.2461 40.8987 10.1445 40.7673C10.0435 40.6358 9.99268 40.4666 10.0029 40.2951C9.99512 40.2096 10.0029 40.1232 10.0264 40.0411C10.0493 39.959 10.0874 39.8828 10.1382 39.817C10.189 39.7513 10.2515 39.6973 10.3218 39.6584C10.3916 39.6194 10.4683 39.5963 10.5469 39.5902L12.4854 39.5902C12.6367 35.1033 14.2866 30.8316 17.1235 27.5792C19.9609 24.3267 23.79 22.3179 27.8901 21.9308L27.8901 21.3002C27.8901 20.6901 28.1123 20.105 28.5073 19.6737C28.9028 19.2423 29.439 19 29.9985 19C30.5576 19 31.0938 19.2423 31.4893 19.6737C31.8848 20.105 32.1069 20.6901 32.1069 21.3002L32.1069 22.1163C35.9409 22.8171 39.437 24.9368 42.0073 28.1191C44.5776 31.3015 46.0649 35.3522 46.2192 39.5902ZM30.3247 20.4413C30.2212 20.395 30.1104 20.3717 29.9985 20.3727C29.7793 20.3841 29.5728 20.4866 29.4209 20.6591C29.269 20.8316 29.1836 21.061 29.1821 21.3002L29.1821 21.8567L29.3521 21.8567C29.8623 21.8567 30.3384 21.8937 30.8486 21.9308L30.8486 21.3002C30.8496 21.1781 30.8281 21.0571 30.7856 20.9441C30.7432 20.8311 30.6807 20.7285 30.6016 20.6422C30.5225 20.5558 30.4282 20.4875 30.3247 20.4413ZM18.5386 28.0009C15.6299 31.0446 13.9116 35.197 13.7437 39.5902L44.9609 39.5902C44.793 35.197 43.0747 31.0446 40.166 28.0009C37.2573 24.9572 33.3828 23.2578 29.3521 23.2578C25.3218 23.2578 21.4473 24.9572 18.5386 28.0009ZM37.3647 27.2316C37.4478 27.2151 37.5332 27.2166 37.6157 27.2361C37.752 27.2361 40.54 27.9039 41.8325 32.0961C41.8862 32.2733 41.8735 32.4664 41.7974 32.6334C41.7207 32.8002 41.5864 32.9272 41.4243 32.9865C41.3604 33.0167 41.29 33.0295 41.2202 33.0236C41.085 33.0223 40.9536 32.9752 40.8438 32.8888C40.7344 32.8024 40.6519 32.681 40.6084 32.5413C39.5542 29.1653 37.4458 28.6459 37.3438 28.6088C37.2612 28.5893 37.1826 28.5522 37.1133 28.4998C37.0439 28.4473 36.9844 28.3803 36.9385 28.3028C36.8931 28.2253 36.8613 28.1387 36.8467 28.048C36.8315 27.9573 36.8325 27.8641 36.8506 27.774C36.8687 27.6839 36.9023 27.5985 36.9507 27.5227C36.9985 27.4468 37.0601 27.3821 37.1309 27.3322C37.2021 27.2822 37.2812 27.248 37.3647 27.2316Z" fill="#163152" fill-opacity="1.000000" fill-rule="evenodd"/>
	<circle id="Ellipse 8" cx="30.000000" cy="30.000000" r="29.500000" stroke="#009A93" stroke-opacity="1.000000" stroke-width="1.000000"/>
</svg>
