<svg width="60.000000" height="60.000000" viewBox="0 0 60 60" fill="none" xmlns="http://www.w3.org/2000/svg" xmlns:xlink="http://www.w3.org/1999/xlink">
	<desc>
			Created with Pixso.
	</desc>
	<defs/>
	<circle id="Ellipse 11" cx="30.000000" cy="30.000000" r="29.500000" stroke="#009A93" stroke-opacity="1.000000" stroke-width="1.000000"/>
	<path id="hands" d="M46.1602 29.2727C46.3613 29.0845 46.6772 29.0952 46.8657 29.2966C47.0537 29.498 47.043 29.814 46.8418 30.0023L44.4688 32.2211C44.2759 32.4014 43.9658 32.3973 43.7773 32.2117L42.7046 31.1528L41.5581 32.3516L41.8999 32.5618C42.8843 33.1671 43.1934 34.4608 42.5884 35.4459C42.1929 36.0895 41.5039 36.4445 40.7993 36.4445C40.6377 36.4445 40.4756 36.4246 40.3154 36.3865C40.3423 36.8138 40.2378 37.2382 40.0093 37.6105C39.6299 38.2281 38.9443 38.6104 38.2197 38.6104C38.0566 38.6104 37.8945 38.59 37.7368 38.5521C37.7632 38.9791 37.6587 39.4032 37.4302 39.7753C37.0508 40.3928 36.3652 40.7751 35.6406 40.7751C35.4771 40.7751 35.3149 40.7546 35.1562 40.7165C35.1821 41.1321 35.085 41.559 34.8511 41.9399C34.7334 42.1315 34.5854 42.3042 34.4136 42.449C33.731 43.0235 32.7275 43.0953 31.9683 42.6286L31.688 42.4564L31.3477 43.0082C31.2295 43.1996 31.0811 43.3721 30.9087 43.5166C30.2251 44.0898 29.2217 44.1597 28.4634 43.6917C27.9414 43.3696 27.5854 42.8292 27.4922 42.2234C26.9092 42.4117 26.2671 42.3359 25.7451 42.0139C25.2231 41.6917 24.8677 41.1511 24.7744 40.5451C24.1929 40.7333 23.5474 40.6572 23.0273 40.3361C22.5054 40.014 22.1494 39.4733 22.0562 38.8674C21.4751 39.0556 20.8296 38.9795 20.3091 38.6584C19.3257 38.0513 19.0195 36.7569 19.626 35.773L19.8403 35.4257L17.8984 34.3371L17.1577 36.2317C17.0605 36.4793 16.7769 36.6093 16.5264 36.5204L13.3325 35.3889C13.0728 35.2968 12.9365 35.0115 13.0288 34.7515C13.1206 34.4916 13.4058 34.3556 13.6655 34.4476L16.4043 35.4179L20.8384 24.0814L13.314 21.0703C13.0581 20.9679 12.9336 20.6773 13.0356 20.4213C13.1382 20.1653 13.4287 20.0406 13.6846 20.1432L21.6689 23.3383C21.9233 23.4401 22.0483 23.7283 21.9482 23.9837L21.7461 24.5002L24.2441 24.9413C24.2573 24.9436 24.27 24.9468 24.2827 24.9501L28.625 22.9714C28.7021 22.9358 28.79 22.9212 28.8745 22.9284L34.355 23.4005L34.6167 23.1693L33.7969 22.36C33.5981 22.1639 33.6025 21.8314 33.8062 21.6404L40.7993 15.1349C41 14.9464 41.3159 14.9567 41.5044 15.1578C41.6929 15.3589 41.6826 15.6749 41.4814 15.8635L34.8672 22.0139L44.1372 31.1642L46.1602 29.2727ZM38.2144 30.2961L40.688 31.8168L41.9941 30.4513L35.3291 23.8723L34.8555 24.2905C34.7637 24.3713 34.646 24.4155 34.5249 24.4155C34.5107 24.4155 34.4966 24.4149 34.4824 24.4136L28.9194 23.9343L24.2427 26.0651C23.6919 26.3162 23.4478 26.9688 23.6987 27.52C23.9497 28.0711 24.6021 28.3153 25.1528 28.0642L28.0757 26.7326C28.3228 26.6198 28.6235 26.7325 28.7363 26.98C28.8491 27.2276 28.7368 27.5285 28.4893 27.6412L25.5669 28.9729C25.2861 29.1008 24.9912 29.1614 24.7012 29.1614C23.9043 29.1615 23.1416 28.7051 22.7905 27.9338C22.4512 27.1884 22.5869 26.3459 23.0684 25.7476L21.375 25.4487L18.2656 33.3983L20.3652 34.5749L22.4219 31.2407C23.0171 30.2754 24.2954 29.9593 25.2715 30.5364C26.0576 31.0013 26.436 31.9529 26.2305 32.8373C26.6377 32.8099 27.0562 32.8995 27.4302 33.1206C28.2163 33.5856 28.5952 34.5371 28.3892 35.4215C28.7969 35.394 29.2153 35.4836 29.5894 35.7048C30.0684 35.9882 30.4072 36.4476 30.5435 36.9983C30.6255 37.3305 30.625 37.6769 30.5483 38.0057C30.9556 37.9783 31.374 38.0679 31.748 38.2889C32.2275 38.5724 32.5664 39.0318 32.7021 39.5825C32.8398 40.1405 32.7471 40.7394 32.4468 41.2259L32.2124 41.6064L32.4907 41.7777C33.001 42.0913 33.688 41.9266 34.001 41.4169C34.3179 40.9009 34.1562 40.2232 33.6406 39.9061L32.9473 39.48C32.7124 39.3358 32.6392 39.0283 32.7832 38.7934C32.9185 38.5732 33.1973 38.4949 33.4248 38.605C33.4404 38.6123 35.0698 39.6131 35.0698 39.6131C35.5801 39.9268 36.2671 39.762 36.5801 39.2523C36.8936 38.7418 36.729 38.0548 36.2192 37.7415L34.3662 36.6024C34.1313 36.4581 34.0581 36.1506 34.2021 35.9158C34.3467 35.6809 34.6538 35.6074 34.8887 35.7518L37.6489 37.4485C38.1592 37.7621 38.8457 37.5974 39.1587 37.0877C39.4727 36.5772 39.3076 35.8901 38.7983 35.5769L35.7524 33.7047C35.5181 33.5604 35.4443 33.2529 35.5889 33.018C35.7329 32.7831 36.0405 32.7096 36.2749 32.854L40.2275 35.2839C40.7437 35.6009 41.4209 35.439 41.7378 34.9231C42.0547 34.407 41.8931 33.7294 41.3774 33.4123L37.6919 31.1468C37.4624 31.0059 37.3867 30.6896 37.5278 30.4601C37.6689 30.2307 37.9849 30.1551 38.2144 30.2961ZM31.7036 26.2938L36.3281 29.1365C36.5654 29.2827 36.6367 29.6132 36.4785 29.8432C36.3315 30.0575 36.0273 30.1237 35.8057 29.9873L31.2617 27.1943L29.8955 26.9531C29.6279 26.9058 29.4438 26.6426 29.4907 26.3747C29.5381 26.1068 29.8013 25.9224 30.0688 25.9698L31.5171 26.2253C31.5825 26.2356 31.647 26.2591 31.7036 26.2938ZM20.8335 37.8087C21.3486 38.1266 22.0264 37.966 22.3442 37.4507L25.1206 32.9494C25.438 32.4344 25.292 31.709 24.7632 31.3962C24.252 31.0942 23.5825 31.2595 23.2705 31.7654L20.4756 36.2972C20.1577 36.8127 20.3184 37.4907 20.8335 37.8087ZM23.5513 39.4865C24.0664 39.8044 24.7441 39.6438 25.062 39.1284L27.2793 35.5335C27.5967 35.0186 27.4507 34.2932 26.9219 33.9803C26.4106 33.6783 25.7412 33.8438 25.4297 34.3495L23.1934 37.975C22.8789 38.485 23.0425 39.1722 23.5513 39.4865ZM27.0986 41.2982C27.3843 41.2306 27.626 41.0558 27.7803 40.8062L29.4385 38.1176C29.7559 37.6027 29.6099 36.8773 29.0811 36.5645C28.5698 36.2624 27.9004 36.4278 27.5884 36.9336L25.9116 39.6528C25.5972 40.1627 25.7603 40.85 26.2695 41.1642C26.519 41.3182 26.8135 41.3659 27.0986 41.2982ZM30.498 42.4839L31.5972 40.7018C31.915 40.187 31.769 39.4615 31.2397 39.1487C30.729 38.8464 30.0596 39.0121 29.7476 39.5178L28.6294 41.3305C28.3149 41.8404 28.4785 42.5278 28.9873 42.8419C29.4971 43.1566 30.1841 42.9932 30.498 42.4839Z" fill="#163152" fill-opacity="1.000000" fill-rule="evenodd"/>
</svg>
