<svg width="110" height="91" viewBox="0 0 110 91" fill="none" xmlns="http://www.w3.org/2000/svg">
<path d="M5.78762 78.2535C6.15738 78.2407 6.45774 78.3587 6.68869 78.6073C6.77885 78.7049 6.80876 78.7992 6.77842 78.8903C6.74324 78.9871 6.65537 79.0382 6.5148 79.0438L6.41354 79.0516C5.95514 81.7508 5.73315 84.3953 5.74756 86.985C5.75015 87.0997 5.68086 87.1939 5.5397 87.2674C5.40857 87.3349 5.24953 87.3759 5.06258 87.3903C4.88083 87.4042 4.72309 87.3876 4.58938 87.3405C4.44976 87.2833 4.37902 87.2025 4.37714 87.0982C4.36001 84.5452 4.57391 81.9353 5.01885 79.2685L4.48774 79.4033L3.94937 79.5466C3.51846 79.658 3.14291 79.7391 2.82271 79.7899C2.52169 81.8867 2.33059 84.1031 2.24943 86.4391C2.24718 86.5594 2.17872 86.6273 2.04405 86.6429C1.92497 86.6573 1.77968 86.6319 1.6082 86.5667C1.43708 86.5067 1.2931 86.4238 1.17626 86.3178C1.04834 86.2023 0.986031 86.0922 0.989345 85.9874C1.08447 83.243 1.32274 80.7227 1.70415 78.4263C1.73981 78.1833 1.9558 78.1354 2.35211 78.2825C2.5073 78.3385 2.64314 78.4168 2.75962 78.5176C2.88164 78.6231 2.94861 78.7251 2.96052 78.8234L3.30681 78.7341L3.65256 78.637C3.94503 78.5623 4.17606 78.5053 4.34566 78.4662C4.87453 78.3367 5.35518 78.2658 5.78762 78.2535ZM9.13702 82.3211C10.0908 81.9918 10.8732 81.5608 11.4842 81.028C11.6419 80.8906 11.7982 80.7323 11.9531 80.5532C12.1321 80.3462 12.2876 80.1384 12.4196 79.9297C12.7488 79.3977 12.8565 78.9481 12.7428 78.5807C12.7414 78.5599 12.7403 78.5444 12.7396 78.534L12.7235 78.5274L12.7074 78.5208C12.5585 78.48 12.3876 78.4618 12.1947 78.4662C11.7671 78.4729 11.3841 78.5206 11.0456 78.6093C10.6406 78.7188 10.251 78.8611 9.8766 79.0361C9.56788 80.0993 9.32135 81.1943 9.13702 82.3211ZM10.343 77.6056C11.8379 77.2504 12.9182 77.5147 13.5839 78.3985C13.8992 78.8131 13.9924 79.2995 13.8633 79.8579C13.7587 80.3152 13.5239 80.7772 13.159 81.2441C12.3233 82.3112 11.0325 83.0581 9.28669 83.4849C9.20431 83.5016 9.10145 83.486 8.97813 83.4381C8.85092 84.5604 8.79613 85.5963 8.81375 86.5456C8.81527 86.6447 8.74664 86.7101 8.60784 86.7417C8.47978 86.7776 8.32606 86.7816 8.14667 86.7536C7.69784 86.6784 7.4703 86.5183 7.46407 86.2733C7.422 84.1976 7.69346 82.0115 8.27846 79.7153C8.05222 79.6125 7.87266 79.467 7.73978 79.2787C7.59511 79.0704 7.59488 78.9138 7.73912 78.8086C8.01719 78.5992 8.3377 78.3996 8.70064 78.2098C8.88539 77.6262 9.06229 77.119 9.23134 76.6881C9.271 76.5806 9.37339 76.5127 9.53851 76.4843C9.68285 76.4575 9.84507 76.4633 10.0252 76.5017C10.2056 76.5453 10.3482 76.6075 10.4529 76.6882C10.5738 76.7782 10.614 76.8691 10.5732 76.9611L10.462 77.283L10.343 77.6056ZM19.4681 78.291L19.5332 78.0979C19.6221 77.7934 19.7537 77.7702 19.9279 78.0284C19.9969 78.1224 20.0544 78.2381 20.1003 78.3756C20.1458 78.5079 20.1659 78.6108 20.1604 78.6844C20.1219 79.5753 20.1296 80.6482 20.1837 81.9029L20.254 83.5115L20.2931 84.3156L20.3316 85.1118C20.3413 85.3304 20.312 85.4763 20.2439 85.5495C20.1859 85.6166 20.1104 85.6198 20.0175 85.559C19.925 85.5035 19.843 85.4105 19.7714 85.2802C19.6989 85.1343 19.6602 84.9884 19.6555 84.8425L19.6043 83.8592L19.5608 82.8753C19.5216 82.0687 19.4926 81.4128 19.4739 80.9075C19.2231 81.5954 18.9706 82.2181 18.7162 82.7757C18.3931 83.4744 18.0724 84.0553 17.7542 84.5186C16.9519 85.6928 16.202 86.0639 15.5044 85.6317C15.0847 85.3715 14.7878 84.8824 14.6137 84.1645C14.5478 83.8875 14.4981 83.5779 14.4643 83.2357C14.4422 82.9867 14.4284 82.7083 14.4232 82.4005C14.3992 80.898 14.5749 79.2992 14.9502 77.604C14.9988 77.3966 15.0666 77.2817 15.1539 77.2593C15.2307 77.2377 15.312 77.2811 15.3976 77.3894C15.5988 77.6612 15.6697 77.9353 15.6102 78.2114C15.2868 79.6728 15.1168 80.9342 15.1003 81.9959C15.1005 82.0742 15.1015 82.1656 15.1033 82.2699C15.1077 82.4106 15.1172 82.5509 15.132 82.6908C15.1585 83.0805 15.2073 83.4137 15.2783 83.6903C15.4803 84.5105 15.8265 84.7268 16.3169 84.3391C17.0643 83.7384 17.735 82.778 18.329 81.4578C18.5561 80.9598 18.7805 80.3836 19.0022 79.7293C19.0894 79.4771 19.1825 79.1957 19.2814 78.8851L19.4107 78.4834L19.4681 78.291ZM26.3582 75.9358L26.383 75.8398C26.4219 75.7219 26.5094 75.6656 26.6455 75.6708C26.7709 75.6716 26.9124 75.7182 27.07 75.8105C27.2277 75.9029 27.3525 76.0108 27.4444 76.1343C27.5475 76.2674 27.584 76.3822 27.554 76.4785C27.4606 76.7939 27.3422 77.1634 27.1988 77.5871L27.0095 78.1422L26.8207 78.7052C26.5028 79.6333 26.272 80.385 26.1285 80.9601C25.684 82.7128 25.6448 84.2463 26.0109 85.5606C26.046 85.6937 26.0146 85.7693 25.9167 85.7873C25.8239 85.8048 25.6968 85.778 25.5354 85.7069C25.1425 85.5334 24.9178 85.3391 24.8614 85.124C24.4894 83.7997 24.5082 82.273 24.9178 80.5439C23.6562 82.5631 22.7162 83.1708 22.0977 82.3669C21.8281 82.0115 21.6704 81.5353 21.6246 80.9381C21.5915 80.528 21.6167 80.0167 21.7003 79.4044C21.8908 77.9846 22.1822 76.8966 22.5744 76.1404C22.6573 75.9773 22.7415 75.9108 22.8271 75.9408C22.9022 75.9716 22.9711 76.0629 23.0336 76.2148C23.1737 76.5854 23.1883 76.8767 23.0775 77.089C23.0039 77.2357 22.8987 77.5311 22.7619 77.9751C22.6138 78.4827 22.4952 78.9646 22.4061 79.4206C22.1649 80.7085 22.2665 81.3197 22.711 81.2542C23.0831 81.1994 23.4546 80.9437 23.8255 80.4868C23.9603 80.3198 24.1006 80.1183 24.2464 79.8825C24.303 79.7946 24.364 79.6933 24.4293 79.5785L24.5137 79.4389L24.5909 79.3076C25.0496 78.5306 25.6031 77.459 26.2514 76.0928C26.2832 76.0225 26.3188 75.9701 26.3582 75.9358ZM32.0621 78.0124C31.5238 78.7694 31.0279 79.5754 30.5745 80.4303C31.05 80.2841 31.5332 80.1738 32.0241 80.0995C32.0048 79.4324 32.0174 78.7367 32.0621 78.0124ZM32.8565 80.0199L33.0434 80.0055C33.4547 79.9895 33.6074 80.0849 33.5014 80.2915C33.3954 80.4982 33.1821 80.6243 32.8615 80.6698C32.9059 82.3954 33.1717 83.9237 33.659 85.2548C33.7355 85.4579 33.7508 85.6056 33.7049 85.6979C33.6738 85.7786 33.6027 85.8076 33.4915 85.7848C33.3907 85.7612 33.2847 85.6988 33.1734 85.5977C33.0614 85.4862 32.9797 85.3592 32.9283 85.2169C32.4409 83.8858 32.1492 82.3987 32.053 80.7554C31.4123 80.8517 30.7584 81.0613 30.0913 81.3842C29.4923 82.6316 28.9874 83.9189 28.5766 85.2459C28.5335 85.3798 28.4588 85.4325 28.3525 85.4041C28.2569 85.3801 28.1548 85.2992 28.0462 85.1613C27.7781 84.8267 27.6783 84.5497 27.7469 84.3302C27.9609 83.64 28.2106 82.9365 28.4959 82.2198C28.2062 82.2578 27.9567 82.2352 27.7475 82.152C27.5167 82.06 27.5214 81.9369 27.7615 81.7827C28.1617 81.5273 28.5637 81.2979 28.9675 81.0945C29.908 78.9589 31.018 77.1289 32.2976 75.6046C32.4666 75.4035 32.6494 75.4809 32.8459 75.8367C32.9229 75.9718 32.9851 76.1185 33.0324 76.2768C33.0794 76.4299 33.0974 76.5408 33.0864 76.6095C32.9379 77.8798 32.8613 79.0166 32.8565 80.0199ZM37.628 76.1037C38.4689 75.804 39.4154 75.5981 40.4675 75.4859C40.6852 75.4639 40.8292 75.6618 40.8994 76.0795C40.9692 76.492 40.9105 76.742 40.7233 76.8295C40.336 79.3457 40.2669 81.6284 40.516 83.6778C40.5387 83.8589 40.5065 83.9606 40.4193 83.983C40.3373 84.0049 40.2304 83.9688 40.0987 83.8744C39.7701 83.6489 39.5925 83.4171 39.5659 83.1789C39.3308 81.259 39.3497 79.1969 39.6225 76.9925C38.9676 77.1107 38.3624 77.2696 37.807 77.469C37.8493 78.244 37.8493 78.9727 37.807 79.655C37.7556 80.5104 37.6398 81.2636 37.4596 81.9147C37.0039 83.5795 36.1563 84.5091 34.9167 84.7037C34.6944 84.7364 34.437 84.5969 34.1443 84.2851C34.0209 84.1588 33.9532 84.0464 33.9413 83.9481C33.9287 83.8394 33.9921 83.7744 34.1316 83.7533C35.0822 83.6071 35.7679 82.9067 36.1889 81.652C36.5058 80.7083 36.6602 79.4872 36.6522 77.9887C36.4308 78.1102 36.2301 78.23 36.0502 78.3483C35.9506 78.4187 35.8555 78.4025 35.765 78.2998C35.6808 78.2122 35.617 78.0813 35.5739 77.907C35.5303 77.7275 35.5164 77.5615 35.5321 77.4088C35.5516 77.2349 35.6037 77.1186 35.6885 77.0598C35.9583 76.8824 36.2624 76.7101 36.6008 76.5431C36.5806 76.2469 36.5563 75.9667 36.5279 75.7025C36.5059 75.5318 36.6476 75.5052 36.9532 75.6228C37.2535 75.7407 37.4784 75.901 37.628 76.1037ZM51.7519 77.5958C52.8629 77.735 53.5206 78.2721 53.7252 79.2071C53.8636 79.8598 53.7652 80.5229 53.4299 81.1964C53.1216 81.8052 52.6791 82.3223 52.1026 82.748C51.4758 83.2036 50.8801 83.5393 50.3153 83.7551C49.5415 84.0444 48.8806 84.0743 48.3325 83.8448C48.037 83.7213 47.8229 83.4896 47.6901 83.1498C47.5647 82.8408 47.527 82.5173 47.5771 82.1791C47.7078 81.3385 48.2033 80.718 49.0635 80.3176C49.1597 80.2736 49.235 80.307 49.2895 80.4178C49.3433 80.5181 49.366 80.66 49.3576 80.8435C49.3544 81.0265 49.3266 81.1932 49.2742 81.3435C49.2125 81.5102 49.1309 81.6157 49.0295 81.66C48.6752 81.8231 48.506 82.0215 48.5219 82.2554C48.5378 82.4892 48.7312 82.6075 49.102 82.6104C49.4465 82.61 49.7773 82.5611 50.0943 82.4636C50.917 82.2018 51.5946 81.8416 52.1271 81.3828C52.3194 81.2165 52.4784 81.0606 52.6043 80.9151C52.774 80.7245 52.8975 80.5452 52.9748 80.3774C53.1643 79.9397 53.0305 79.5843 52.5734 79.3113C51.7733 78.8295 50.7514 78.7723 49.5079 79.1395L49.3636 79.2054L49.2261 79.2552C49.0278 79.3331 48.9235 79.1818 48.9133 78.8013C48.9002 78.609 48.924 78.4217 48.9847 78.2395C49.0547 78.0408 49.1459 77.9241 49.2584 77.8894C49.3501 77.8562 49.4524 77.8248 49.5652 77.7953C50.5182 77.3773 51.2654 76.8131 51.807 76.1029C52.0084 75.8419 52.0904 75.6267 52.0527 75.4572C52.0085 75.2673 51.816 75.162 51.4753 75.1412C50.9192 75.1003 50.34 75.2572 49.7377 75.6116C49.5214 75.7327 49.3174 75.879 49.1254 76.0505C48.8941 76.2563 48.7823 76.4164 48.7901 76.5307C48.7952 76.6818 48.7635 76.8305 48.6952 76.9768C48.6361 77.1067 48.5615 77.1986 48.4712 77.2525C48.3761 77.3121 48.2949 77.3079 48.2276 77.2399C48.1544 77.162 48.1132 77.0163 48.1039 76.8028C48.0814 76.3188 48.2092 75.8571 48.4873 75.4179C48.7422 75.0222 49.0901 74.6872 49.5308 74.4131C49.9663 74.1393 50.3918 73.9473 50.8071 73.837C51.3456 73.6964 51.7963 73.7218 52.1591 73.9133C52.5756 74.1268 52.7936 74.5305 52.8131 75.1245C52.8315 75.6246 52.7259 76.1054 52.4963 76.567C52.3261 76.904 52.078 77.2469 51.7519 77.5958ZM59.1677 74.9103C59.3456 77.524 58.9878 79.5156 58.0943 80.8849C59.17 80.8127 60.0971 80.6291 60.8758 80.3342C60.7002 78.8276 60.9473 76.8211 61.6172 74.3146C60.6974 74.4532 59.8809 74.6517 59.1677 74.9103ZM62.377 72.8223C62.5843 72.8011 62.7271 72.9808 62.8051 73.3614C62.9228 73.556 62.9651 73.7173 62.932 73.8452L62.7259 74.6133L62.5187 75.3657C62.3565 75.9736 62.2313 76.4743 62.1433 76.8676C61.8866 78.0051 61.7625 79.0202 61.7711 79.9128C62.0375 79.7617 62.2794 79.5968 62.4969 79.4182C62.6159 79.3255 62.7335 79.3661 62.8498 79.5399C62.9545 79.699 63.0203 79.8977 63.0469 80.1359C63.2962 80.3466 63.3948 80.5297 63.3427 80.6852C63.0079 81.672 62.9493 82.6899 63.1668 83.7388C63.1968 83.8723 63.1578 83.951 63.0498 83.975C62.957 83.9926 62.8297 83.9632 62.6679 83.8868C62.2802 83.7129 62.0632 83.5154 62.0168 83.2944C61.8778 82.6312 61.8387 81.9813 61.8998 81.3446C60.6038 82.0135 58.748 82.3207 56.3326 82.2661C56.5369 82.8145 56.6116 83.3364 56.5566 83.8316C56.5439 83.9527 56.4654 84.0267 56.3211 84.0534C56.1975 84.0786 56.0476 84.0614 55.8712 84.0018C55.7005 83.947 55.557 83.8719 55.4409 83.7763C55.3137 83.6712 55.2569 83.5659 55.2706 83.4604C55.3472 82.7441 55.1928 82.0873 54.8077 81.4901C54.7435 81.3906 54.746 81.312 54.8151 81.2545C54.8746 81.2081 54.9615 81.1806 55.0757 81.1718C55.1045 80.9815 55.1766 80.8898 55.2919 80.8966C55.6738 80.909 56.0137 80.9169 56.3114 80.9201C57.4985 79.7998 58.0703 77.9616 58.0268 75.4054C57.8002 75.5273 57.5894 75.6506 57.3943 75.7753C57.2943 75.8404 57.1992 75.8242 57.1091 75.7267C57.0248 75.6391 56.9609 75.5056 56.9174 75.3261C56.869 75.1523 56.8551 74.9862 56.8756 74.8279C56.8955 74.6592 56.9478 74.5455 57.0325 74.4868C57.2927 74.3205 57.5995 74.1507 57.9531 73.9772C57.9285 73.6918 57.9014 73.4092 57.872 73.1294C57.8495 72.9535 57.9939 72.9268 58.305 73.0491C58.6161 73.1715 58.8412 73.3344 58.9803 73.5378C59.8368 73.2369 60.8449 73.0158 62.0046 72.8744C62.044 72.7617 62.1423 72.7489 62.2996 72.8361L62.377 72.8223ZM68.5186 79.6056C68.7448 79.1704 68.902 78.7953 68.9902 78.4803C69.0108 78.4004 69.0378 78.2599 69.0711 78.0588C69.113 77.831 69.1509 77.5826 69.1848 77.3136C69.2766 76.5909 69.3281 75.9288 69.3394 75.3272C69.3642 73.5441 69.0073 72.7488 68.2687 72.9414C67.3657 73.1727 66.7787 73.9047 66.5076 75.1374C66.2644 76.2426 66.3295 77.2379 66.7029 78.1233C66.7905 78.336 66.6923 78.4271 66.4083 78.3967C66.14 78.3651 65.8959 78.2689 65.6762 78.1082C65.6269 78.9948 65.7393 79.8036 66.0135 80.5347C66.2176 81.078 66.4814 81.3502 66.8052 81.3514C67.077 81.3566 67.3804 81.174 67.7153 80.8035C67.9919 80.495 68.2597 80.0957 68.5186 79.6056ZM66.1102 72.8644C66.6868 72.209 67.43 71.969 68.3398 72.1446C69.5197 72.3777 70.2519 73.2408 70.5362 74.7337C70.6488 75.3153 70.6825 75.9631 70.6371 76.677C70.6051 77.2801 70.5219 77.8611 70.3877 78.4199C70.2662 78.9359 70.0701 79.4681 69.7994 80.0165C69.487 80.6412 69.1382 81.1538 68.753 81.5543C67.7587 82.5918 66.7501 82.6511 65.727 81.732C64.965 81.0436 64.5212 80.0069 64.3956 78.6219C64.2763 77.2521 64.5164 76.1393 65.1159 75.2836C65.1297 75.2564 65.1543 75.2336 65.1896 75.2152C65.3097 74.2188 65.6165 73.4352 66.1102 72.8644ZM73.5377 77.3707C74.4914 77.0415 75.2738 76.6104 75.8849 76.0777C76.0426 75.9402 76.1988 75.7819 76.3537 75.6029C76.5328 75.3958 76.6883 75.188 76.8202 74.9794C77.1495 74.4474 77.2572 73.9977 77.1434 73.6304C77.142 73.6096 77.141 73.594 77.1403 73.5836L77.1242 73.577L77.108 73.5704C76.9591 73.5296 76.7882 73.5114 76.5954 73.5158C76.1678 73.5226 75.7847 73.5703 75.4462 73.659C75.0413 73.7685 74.6516 73.9107 74.2772 74.0858C73.9685 75.149 73.722 76.244 73.5377 77.3707ZM74.7437 72.6552C76.2386 72.3 77.3189 72.5644 77.9845 73.4482C78.2999 73.8627 78.393 74.3492 78.264 74.9076C78.1593 75.3648 77.9246 75.8269 77.5596 76.2937C76.7239 77.3609 75.4332 78.1078 73.6873 78.5345C73.6049 78.5513 73.5021 78.5357 73.3788 78.4877C73.2516 79.6101 73.1968 80.6459 73.2144 81.5953C73.2159 81.6944 73.1473 81.7597 73.0085 81.7913C72.8804 81.8273 72.7267 81.8312 72.5473 81.8032C72.0985 81.7281 71.8709 81.5679 71.8647 81.3229C71.8226 79.2472 72.0941 77.0612 72.6791 74.7649C72.4529 74.6622 72.2733 74.5166 72.1404 74.3284C71.9957 74.1201 71.9955 73.9634 72.1398 73.8583C72.4178 73.6489 72.7383 73.4493 73.1013 73.2594C73.286 72.6759 73.4629 72.1686 73.632 71.7378C73.6716 71.6302 73.774 71.5623 73.9391 71.5339C74.0835 71.5072 74.2457 71.513 74.4258 71.5514C74.6063 71.595 74.7488 71.6571 74.8535 71.7379C74.9745 71.8278 75.0146 71.9188 74.9739 72.0107L74.8627 72.3327L74.7437 72.6552ZM82.9355 78.4974C83.1617 78.0622 83.3188 77.6871 83.407 77.3721C83.4277 77.2922 83.4547 77.1517 83.488 76.9506C83.5299 76.7228 83.5678 76.4744 83.6017 76.2054C83.6935 75.4827 83.745 74.8206 83.7562 74.219C83.7811 72.4359 83.4242 71.6406 82.6856 71.8332C81.7826 72.0645 81.1955 72.7966 80.9244 74.0292C80.6812 75.1344 80.7463 76.1297 81.1198 77.0151C81.2073 77.2278 81.1091 77.3189 80.8252 77.2885C80.5568 77.2569 80.3127 77.1607 80.093 77C80.0437 77.8866 80.1562 78.6954 80.4304 79.4265C80.6344 79.9698 80.8983 80.242 81.222 80.2432C81.4938 80.2484 81.7972 80.0658 82.1322 79.6953C82.4087 79.3868 82.6765 78.9875 82.9355 78.4974ZM80.527 71.7562C81.1036 71.1008 81.8468 70.8608 82.7566 71.0364C83.9366 71.2695 84.6687 72.1326 84.953 73.6255C85.0657 74.2071 85.0993 74.8549 85.0539 75.5688C85.0219 76.1719 84.9388 76.7529 84.8045 77.3117C84.683 77.8277 84.487 78.3599 84.2163 78.9083C83.9038 79.533 83.555 80.0456 83.1699 80.4461C82.1756 81.4836 81.1669 81.5429 80.1438 80.6238C79.3818 79.9355 78.938 78.8987 78.8125 77.5137C78.6931 76.1439 78.9332 75.0311 79.5328 74.1754C79.5466 74.1482 79.5711 74.1254 79.6064 74.107C79.7265 73.1106 80.0334 72.327 80.527 71.7562ZM90.4009 74.9305C91.1044 74.4534 91.4638 73.9426 91.479 73.3981C91.4978 72.7542 91.2238 72.4096 90.6569 72.3644C90.2161 72.3304 89.6256 72.475 88.8855 72.7983L88.8865 72.8139L88.8803 72.8379C88.6718 73.7628 88.4652 74.792 88.2604 75.9256C89.1485 75.6275 89.8619 75.2958 90.4009 74.9305ZM89.7199 78.1562C89.9991 77.7325 90.0514 77.3889 89.8768 77.1255C89.7311 76.9017 89.4816 76.7641 89.1284 76.7129C88.8652 76.6809 88.5271 76.6991 88.1141 76.7674C87.9576 77.6883 87.8134 78.6762 87.6816 79.731C88.2044 79.5132 88.6362 79.2607 88.9768 78.9733C89.1003 78.8698 89.2204 78.7561 89.3373 78.6322C89.4932 78.4687 89.6207 78.31 89.7199 78.1562ZM91.5832 71.8231C92.1616 71.9614 92.5338 72.2149 92.6998 72.5835C93.033 73.3362 92.8546 74.0524 92.1648 74.7323C91.6269 75.2646 90.8012 75.7512 89.688 76.192C91.2083 76.3624 91.6929 77.0016 91.1418 78.1095C90.8156 78.7614 90.2636 79.3184 89.4859 79.7804C88.8587 80.1524 88.1166 80.4471 87.2596 80.6645C87.198 80.6797 87.1153 80.6913 87.0114 80.6993C86.8816 80.7092 86.7614 80.708 86.651 80.6956C86.3407 80.662 86.1981 80.5607 86.2231 80.3916C86.3517 79.29 86.5118 78.152 86.7033 76.9777C86.4543 76.9237 86.3119 76.825 86.276 76.6815C86.2446 76.5272 86.3935 76.4139 86.7227 76.3415L86.8156 76.3266C86.9619 75.4848 87.1336 74.594 87.3307 73.6543L87.2939 73.6885C87.2091 73.7473 87.0783 73.7808 86.9014 73.7892C86.73 73.8024 86.5621 73.7892 86.3975 73.7496C86.2226 73.7108 86.1043 73.6598 86.0426 73.5966C85.975 73.5235 85.9958 73.4461 86.1051 73.3646C87.407 72.3974 88.7638 71.8544 90.1756 71.7354C90.3882 71.7138 90.6072 71.7101 90.8326 71.7241C91.1047 71.7345 91.3549 71.7675 91.5832 71.8231ZM96.6496 78.454C97.3619 78.0284 97.8788 77.5316 98.2004 76.9636C98.2802 76.8322 98.3551 76.6671 98.4251 76.4684C98.5182 76.2262 98.5811 75.9994 98.6137 75.7879C98.7098 75.206 98.5884 74.8418 98.2496 74.6955C97.9756 74.5807 97.6188 74.5925 97.1792 74.7307C96.8522 74.8342 96.5211 74.9929 96.1859 75.2067C95.5296 75.6123 95.061 76.0897 94.7799 76.6389C94.7009 77.3188 94.6162 78.1454 94.5258 79.1187L94.6115 79.1121C95.2479 79.105 95.9273 78.8856 96.6496 78.454ZM97.1028 73.9531C97.8637 73.858 98.5394 73.968 99.1298 74.2831C99.6555 74.5665 99.9375 75.028 99.9758 75.6676C100.01 76.2499 99.8493 76.8003 99.493 77.3187C98.9892 78.047 98.3144 78.6395 97.4685 79.0962C96.6174 79.5534 95.7537 79.787 94.8774 79.7969C94.7416 79.7969 94.6066 79.7681 94.4722 79.7105L94.4537 79.9C94.4452 80.0051 94.3669 80.0816 94.2188 80.1296C94.0855 80.1659 93.9268 80.1729 93.7426 80.1505C93.558 80.1229 93.4057 80.0719 93.2858 79.9976C93.1496 79.914 93.0854 79.8145 93.0932 79.699L93.2136 78.4752L93.3328 77.2359C93.2233 77.1608 93.1811 77.0778 93.2062 76.9871C93.2524 76.8216 93.3236 76.6412 93.42 76.4457C93.6372 74.5747 93.9285 72.9879 94.294 71.6852C94.323 71.5733 94.417 71.4982 94.5763 71.4598C94.7199 71.4227 94.8816 71.4207 95.0613 71.4539C95.2459 71.4815 95.3956 71.5326 95.5103 71.6074C95.6309 71.6922 95.679 71.7851 95.6545 71.8862C95.4196 72.7296 95.2172 73.6671 95.0472 74.6987C95.6979 74.2883 96.3831 74.0398 97.1028 73.9531ZM102.48 74.3389C102.214 74.9445 102.242 75.4045 102.566 75.7192C103.042 76.1841 103.798 76.1678 104.834 75.6702C105.709 75.253 106.367 74.7584 106.808 74.1865C106.846 74.1365 106.909 74.0978 106.996 74.0702C107.094 73.2112 107.214 72.4786 107.355 71.8722C106.749 71.5584 106.02 71.5517 105.169 71.8522C104.399 72.1255 103.773 72.542 103.289 73.1015C103.139 73.275 103.002 73.4526 102.879 73.6345C102.708 73.8827 102.575 74.1175 102.48 74.3389ZM108.552 71.6313C108.777 71.7812 108.971 71.9465 109.134 72.1272C109.27 72.2787 109.225 72.3866 109 72.451C108.795 72.5137 108.558 72.5189 108.288 72.4665C108.16 72.9569 108.05 73.5373 107.96 74.2076C108.14 74.3139 108.184 74.4255 108.093 74.5422L107.992 74.6675L107.89 74.7772C107.876 74.8879 107.857 75.0304 107.832 75.2047L107.801 75.4265L107.769 75.6561C107.717 76.0363 107.684 76.3574 107.67 76.6196C107.618 77.3811 107.685 77.9793 107.871 78.4142C107.958 78.6164 107.983 78.7633 107.948 78.8549C107.917 78.9408 107.846 78.9724 107.735 78.9496C107.629 78.9316 107.521 78.8746 107.41 78.7787C107.288 78.6731 107.196 78.5522 107.135 78.4159C106.905 77.8799 106.798 77.1881 106.814 76.3407C106.6 76.5766 106.346 76.8285 106.051 77.0967C105.933 77.205 105.802 77.3195 105.659 77.4402L105.475 77.6111L105.29 77.7664C104.515 78.4318 103.839 78.92 103.26 79.2309C102.444 79.6749 101.654 79.8767 100.889 79.8362C100.779 79.829 100.693 79.7547 100.631 79.6132C100.58 79.4761 100.559 79.3158 100.567 79.1323C100.58 78.9432 100.619 78.7862 100.684 78.661C100.752 78.52 100.842 78.453 100.952 78.4602C101.68 78.4983 102.439 78.3015 103.23 77.8699C103.833 77.5362 104.479 77.0556 105.167 76.4281C104.798 76.5296 104.44 76.5911 104.091 76.6127C103.806 76.6346 103.524 76.638 103.246 76.6228C102.895 76.6028 102.579 76.554 102.297 76.4764C101.563 76.2768 101.143 75.9017 101.038 75.3509C100.873 74.4547 101.184 73.5819 101.972 72.7326C102.667 71.9844 103.489 71.4773 104.436 71.2112C105.538 70.9019 106.573 70.8876 107.542 71.1683C107.674 70.7299 107.827 70.3342 108.002 69.9812C108.052 69.8833 108.134 69.8613 108.248 69.9153C108.345 69.9653 108.448 70.0618 108.557 70.2049C108.666 70.348 108.744 70.4961 108.791 70.6492C108.849 70.8171 108.853 70.95 108.802 71.0479C108.72 71.2162 108.637 71.4107 108.552 71.6313Z" fill="#235189"/>
<path d="M70.1173 63.8808C62.0042 66.6985 24.1746 71.4223 24.1746 71.4223C24.1746 71.4223 52.7067 69.3511 69.8677 67.2255C87.0279 65.0994 95.9236 53 95.9236 53L11.2232 61.8632L86.6772 56.8337C86.6772 56.8337 78.2314 61.0631 70.1173 63.8808Z" fill="#235189"/>
<path d="M41.5986 61.6498L11.3256 64.2783L12.3608 65.5785L41.5986 61.6498Z" fill="#235189"/>
<path d="M38.2496 65.8782L15.3479 68.9903L16.3835 70.291L38.2496 65.8782Z" fill="#235189"/>
<path d="M13.5917 66.8704L14.6273 68.1711L47.1345 62.759L13.5917 66.8704Z" fill="#235189"/>
<path d="M39.6884 56.8524C39.5886 56.8435 39.4273 56.826 39.3293 56.8136C39.3293 56.8136 29.2948 55.5385 25.5003 51.6147C23.6303 49.6813 22.8242 45.5076 22.8242 45.5076C22.8109 45.4384 22.7184 45.4033 22.6188 45.4299C22.6188 45.4299 17.628 49.9702 17.4096 50.2849C17.0719 50.7714 16.8917 55.6057 24.9138 57.723C30.034 59.0743 39.7631 56.916 39.7631 56.916C39.864 56.8935 39.8653 56.8681 39.7657 56.8591L39.6884 56.8524Z" fill="#235189"/>
<path d="M55.7784 55.2298C55.9429 55.1438 56.2939 54.9408 56.5596 54.7783C56.5596 54.7783 69.8987 46.6533 74.5442 33.5251C76.8342 27.0565 75.9234 12.1269 75.9234 12.1269C83.6771 11.2758 87.9309 6.98423 87.9309 6.98423C87.9309 6.98423 101.113 -2.82864 98.9384 0.858372C99.5334 -1.73686 89.1792 32.8299 78.5755 42.5447C71.7459 48.8018 55.9941 55.4554 55.9941 55.4554C55.7122 55.4181 55.6146 55.3164 55.7784 55.2298Z" fill="#235189"/>
<path d="M37.9954 51.5698C35.4602 49.3765 35.0372 47.3412 34.1484 42.3354C33.5347 38.8791 35.4858 32.3497 35.4858 32.3497C35.5106 32.2506 29.0642 40.9923 24.8449 42.7459C24.3122 43.7692 23.6165 44.9129 29.2681 51.1917C33.0087 55.3473 42.698 56.4747 42.698 56.4747C42.796 56.4863 42.8106 56.4517 42.7302 56.3982C42.7302 56.3982 39.1292 52.5508 37.9954 51.5698Z" fill="#235189"/>
<path d="M71.9939 11.8791C72.9981 9.97903 63.8369 18.8965 63.8369 18.8965C61.4142 21.6621 55.2346 22.8846 55.2813 23.0143C55.2813 23.0143 60.7962 30.2872 60.5518 35.4912C60.205 42.8756 57.9131 47.8704 55.0818 51.9603C53.9147 53.6459 52.0437 55.8642 52.0437 55.8642C51.9529 55.9715 51.9757 56.0126 52.0944 55.9554C52.0944 55.9554 63.1194 48.2567 66.9378 41.2811C73.3275 30.9034 71.4699 12.8707 71.9939 11.8791Z" fill="#235189"/>
<path d="M57.3688 39.0112C57.6526 47.599 48.207 55.5925 47.4485 55.6734C46.569 55.7671 36.7846 49.824 36.5007 41.2362C36.2169 32.6488 45.4799 24.6746 46.4207 24.5743C47.2563 24.4852 57.0849 30.4238 57.3688 39.0112Z" fill="#235189"/>
</svg>
